<svg width="108" height="68" xmlns="http://www.w3.org/2000/svg" data-name="Layer 1">
 <title>Iron Mine</title>
 <g>
  <title>Layer 1</title>
  <g id="Buildings">
   <polygon id="svg_1" stroke-width="0.5px" stroke-miterlimit="10" stroke="#231f20" fill="#303030" points="25.33334732055664,45.463408425450325 27.673349380493164,45.463408425450325 27.673349380493164,66.7734136134386 14.923349380493164,66.7734136134386 14.923349380493164,45.463408425450325 25.33334732055664,45.463408425450325 " class="cls-1"/>
   <polygon id="svg_2" stroke-width="0.5px" stroke-miterlimit="10" stroke="#231f20" fill="#303030" points="0.5433487296104431,45.083411172032356 0.5433487296104431,55.04341025650501 16.373350143432617,55.04341025650501 16.463346481323242,65.6234120875597 26.213346481323242,65.6234120875597 26.213346481323242,45.54341025650501 0.5433487296104431,45.083411172032356 " class="cls-1"/>
   <polyline id="svg_3" stroke-width="0.25px" fill="none" stroke-miterlimit="10" stroke="#231f20" points="0.5433487296104431,49.973410561680794 13.053349494934082,49.973410561680794 21.303346633911133,49.973410561680794 21.303346633911133,65.6234120875597 " class="cls-2"/>
   <polygon id="svg_4" stroke-width="0.5px" stroke-miterlimit="10" stroke="#231f20" fill="#303030" points="12.923349380493164,46.083411172032356 12.923349380493164,53.873408272862434 20.373350143432617,53.873408272862434 20.373350143432617,46.203406289219856 12.923349380493164,46.083411172032356 " class="cls-1"/>
   <polygon id="svg_5" stroke-width="0.5px" stroke-miterlimit="10" stroke="#231f20" fill="#303030" points="14.1233491897583,46.10341162979603 14.1233491897583,9.523414567112923 19.083349227905273,9.523414567112923 19.083349227905273,46.083411172032356 14.1233491897583,46.10341162979603 " class="cls-1"/>
   <polygon id="svg_6" stroke-width="0.5px" stroke-miterlimit="10" stroke="#231f20" fill="#303030" points="16.603347778320312,9.523414567112923 12.353349685668945,9.523414567112923 12.353349685668945,1.0234148055315018 20.873348236083984,1.0234148055315018 20.873348236083984,9.523414567112923 16.603347778320312,9.523414567112923 " class="cls-1"/>
   <line id="svg_7" stroke-width="0.25px" stroke-miterlimit="10" stroke="#231f20" fill="#303030" y2="9.52341" x2="16.60335" y1="1.02341" x1="16.60335" class="cls-3"/>
   <line id="svg_8" stroke-width="0.25px" stroke-miterlimit="10" stroke="#231f20" fill="#303030" y2="53.87341" x2="16.75335" y1="46.14341" x1="16.75335" class="cls-3"/>
   <rect id="svg_9" stroke-width="0.5px" stroke-miterlimit="10" stroke="#231f20" fill="#303030" height="13.75" width="20.09" y="48.89341" x="33.49335" class="cls-1"/>
   <line id="svg_10" stroke-width="0.25px" fill="none" stroke-miterlimit="10" stroke="#231f20" y2="55.77341" x2="53.58335" y1="55.77341" x1="33.49335" class="cls-2"/>
  </g>
  <g id="Platforms">
   <rect transform="rotate(90 137.413 -5.30659)" fill="#a65926" stroke-width="0.25px" stroke-miterlimit="10" stroke="#231f20" height="18.28" width="5.44" y="56.77341" x="202.55335" class="cls-4" id="Lumber"/>
   <rect transform="rotate(90 169.783 -37.3766)" fill="#a65926" stroke-width="0.25px" stroke-miterlimit="10" stroke="#231f20" height="18.28" width="5.44" y="24.86342" x="267.14335" class="cls-4" id="Beams"/>
  </g>
 </g>
</svg>