<svg width="98" height="80" xmlns="http://www.w3.org/2000/svg" data-name="Layer 1">
 <title>Ironworks</title>
 <g>
  <title>Layer 1</title>
  <g id="Buildings">
   <polygon id="svg_1" stroke-width="0.5px" stroke-miterlimit="10" stroke="#231f20" fill="#303030" points="0.8814287185668945,20.475237369537354 0.8814287185668945,54.725239276885986 0.8814287185668945,64.785240650177 11.761428833007812,64.785240650177 11.761428833007812,54.975239276885986 41.88142967224121,54.975239276885986 41.88142967224121,20.475237369537354 0.8814287185668945,20.475237369537354 " class="cls-1"/>
   <polyline id="svg_2" stroke-width="0.5px" stroke-miterlimit="10" stroke="#231f20" fill="#303030" points="0.8814287185668945,29.015236377716064 41.88142967224121,29.015236377716064 41.88142967224121,43.515236377716064 0.8814287185668945,43.515236377716064 0.8814287185668945,29.015236377716064 " class="cls-1"/>
   <line id="svg_3" stroke-width="0.25px" fill="none" stroke-miterlimit="10" stroke="#231f20" y2="36.26524" x2="41.88143" y1="36.26524" x1="0.88143" class="cls-2"/>
   <polyline id="svg_4" stroke-width="0.5px" stroke-miterlimit="10" stroke="#231f20" fill="#303030" points="0.8814287185668945,64.9052357673645 0.8814287185668945,69.24523973464966 4.911428451538086,69.24523973464966 4.911428451538086,64.9052357673645 7.691428184509277,64.9052357673645 7.691428184509277,69.24523973464966 11.761428833007812,69.24523973464966 11.761428833007812,64.9052357673645 " class="cls-1"/>
   <circle id="svg_5" stroke-width="0.25px" stroke-miterlimit="10" stroke="#231f20" fill="#303030" r="1.22" cy="66.91524" cx="2.89143" class="cls-3"/>
   <circle id="svg_6" stroke-width="0.25px" stroke-miterlimit="10" stroke="#231f20" fill="#303030" r="1.22" cy="66.91524" cx="9.73143" class="cls-3"/>
   <rect id="svg_7" stroke-width="0.5px" stroke-miterlimit="10" stroke="#231f20" fill="#303030" height="34.96" width="41.25" y="20.47524" x="55.99143" class="cls-1"/>
   <polyline id="svg_8" stroke-width="0.5px" stroke-miterlimit="10" stroke="#231f20" fill="#303030" points="56.11142921447754,29.015236377716064 97.11142921447754,29.015236377716064 97.11142921447754,43.515236377716064 56.11142921447754,43.515236377716064 56.11142921447754,29.015236377716064 " class="cls-1"/>
   <line id="svg_9" stroke-width="0.25px" fill="none" stroke-miterlimit="10" stroke="#231f20" y2="36.26524" x2="97.11143" y1="36.26524" x1="56.11143" class="cls-2"/>
  </g>
  <g id="Platforms">
   <polygon fill="#a65926" stroke-width="0.25px" stroke-miterlimit="10" stroke="#231f20" points="23.761428833007812,74.84523820877075 23.761428833007812,79.01523637771606 81.67142677307129,79.01523637771606 81.67142677307129,74.84523820877075 55.17142677307129,74.84523820877075 55.17142677307129,51.725239276885986 51.161428451538086,51.725239276885986 51.161428451538086,74.80523729324341 23.761428833007812,74.84523820877075 " class="cls-4" data-name="Raw Iron Coal" id="Raw_Iron_Coal"/>
   <rect id="svg_10" fill="#a65926" stroke-width="0.25px" stroke-miterlimit="10" stroke="#231f20" height="11.48" width="4.13" y="55.42524" x="84.35143" class="cls-4"/>
   <rect fill="#a65926" stroke-width="0.25px" stroke-miterlimit="10" stroke="#231f20" height="3.79" width="13.58" y="1.97524" x="30.82143" class="cls-4" id="Tools"/>
   <polygon fill="#a65926" stroke-width="0.25px" stroke-miterlimit="10" stroke="#231f20" points="67.45142555236816,1.1352381706237793 67.45142555236816,5.135238170623779 90.20142555236816,5.135238170623779 90.20142555236816,18.055237293243408 94.49142646789551,18.055237293243408 94.49142646789551,0.9252381324768066 67.45142555236816,1.1352381706237793 " class="cls-4" data-name="Steel Pipes" id="Steel_Pipes"/>
   <rect id="svg_11" fill="#a65926" stroke-width="0.25px" stroke-miterlimit="10" stroke="#231f20" height="12.03" width="4.22" y="8.43524" x="58.10143" class="cls-4"/>
  </g>
 </g>
</svg>