<svg width="64" height="110" xmlns="http://www.w3.org/2000/svg" data-name="Layer 1">
 <title>Logging Camp1</title>

 <g>
  <title>Layer 1</title>
  <g id="Platforms">
   <rect class="cls-1" x="43.80386" y="80.97649" width="3.83" height="24.77" fill="#a65926" stroke="#231f20" stroke-miterlimit="10" stroke-width="0.25px" id="svg_1"/>
   <rect id="Logs2" class="cls-1" x="43.65386" y="54.95649" width="3.83" height="12.35" fill="#a65926" stroke="#231f20" stroke-miterlimit="10" stroke-width="0.25px"/>
   <rect id="Logs1" class="cls-1" x="43.55386" y="37.14649" width="3.83" height="12.35" fill="#a65926" stroke="#231f20" stroke-miterlimit="10" stroke-width="0.25px"/>
   <rect id="Cordwood1" class="cls-1" x="24.96386" y="72.70649" width="3.83" height="12.35" fill="#a65926" stroke="#231f20" stroke-miterlimit="10" stroke-width="0.25px"/>
   <rect id="Cordwood2" class="cls-1" x="24.96386" y="88.95649" width="3.83" height="12.35" fill="#a65926" stroke="#231f20" stroke-miterlimit="10" stroke-width="0.25px"/>
   <rect class="cls-1" x="28.58386" y="71.97649" width="8.31" height="1.97" fill="#a65926" stroke="#231f20" stroke-miterlimit="10" stroke-width="0.25px" id="svg_2" transform="rotate(-2 -14.9661 0.306491)"/>
   <rect class="cls-1" x="28.84386" y="108.13649" width="8.31" height="1.97" fill="#a65926" stroke="#231f20" stroke-miterlimit="10" stroke-width="0.25px" id="svg_3" transform="rotate(-2 -16.2161 0.376491)"/>
  </g>
  <g id="Buildings">
   <polygon class="cls-2" points="36.883859634399414,2.036491274833679 41.633859634399414,1.0964912176132202 46.35386085510254,2.3764911890029907 45.76386070251465,16.156490683555603 40.92386054992676,15.036491751670837 36.17386054992676,15.75649106502533 36.883859634399414,2.036491274833679 " stroke="#231f20" stroke-miterlimit="10" fill="#303030" stroke-width="0.5px" id="svg_4"/>
   <path class="cls-3" d="m41.63386,1.09649l-0.71,13.94l0.71,-13.94z" stroke="#231f20" stroke-miterlimit="10" stroke-width="0.25px" fill="#303030" id="svg_5"/>
   <polygon class="cls-2" points="8.203859329223633,22.316490530967712 10.043859481811523,22.316490530967712 12.323860168457031,22.976490378379822 13.543859481811523,14.18649137020111 11.043859481811523,13.43649137020111 9.453859329223633,13.626490950584412 8.203859329223633,22.316490530967712 " stroke="#231f20" stroke-miterlimit="10" fill="#303030" stroke-width="0.5px" id="svg_6"/>
   <polygon class="cls-2" points="8.383859634399414,28.976490378379822 9.453859329223633,37.75649106502533 11.133859634399414,37.406492590904236 13.543859481811523,37.376489996910095 12.633859634399414,28.50649106502533 10.513858795166016,28.50649106502533 8.383859634399414,28.976490378379822 " stroke="#231f20" stroke-miterlimit="10" fill="#303030" stroke-width="0.5px" id="svg_7"/>
   <polygon class="cls-2" points="1.4838600158691406,48.18649137020111 0.6338596343994141,52.726492285728455 1.263859748840332,57.59649121761322 15.133859634399414,58.09649121761322 14.633859634399414,53.286489844322205 15.323860168457031,48.536489844322205 1.4838600158691406,48.18649137020111 " stroke="#231f20" stroke-miterlimit="10" fill="#303030" stroke-width="0.5px" id="svg_8"/>
   <polygon class="cls-2" points="9.293859481811523,66.22648847103119 10.23386001586914,74.97648847103119 12.543859481811523,74.78649365901947 14.353858947753906,74.6264899969101 13.633859634399414,65.81649243831635 11.323860168457031,66.0064948797226 9.293859481811523,66.22648847103119 " stroke="#231f20" stroke-miterlimit="10" fill="#303030" stroke-width="0.5px" id="svg_9"/>
   <polygon class="cls-2" points="40.95385932922363,68.3764899969101 43.17386054992676,68.3764899969101 45.23385810852051,68.3764899969101 45.563859939575195,77.03649365901947 43.383859634399414,77.03649365901947 41.26386070251465,77.03649365901947 40.95385932922363,68.3764899969101 " stroke="#231f20" stroke-miterlimit="10" fill="#303030" stroke-width="0.5px" id="svg_10"/>
   <polygon class="cls-2" points="57.5738582611084,30.25649106502533 59.88385581970215,30.25649106502533 61.7038631439209,30.50649106502533 61.23386192321777,39.34649121761322 59.2038631439209,39.00649106502533 56.9538631439209,39.036489844322205 57.5738582611084,30.25649106502533 " stroke="#231f20" stroke-miterlimit="10" fill="#303030" stroke-width="0.5px" id="svg_11"/>
   <line class="cls-3" x1="11.32386" y1="13.52649" x2="10.04386" y2="22.31649" stroke="#231f20" stroke-miterlimit="10" stroke-width="0.25px" fill="#303030" id="svg_12"/>
   <line class="cls-3" x1="10.51386" y1="28.50649" x2="11.13386" y2="37.40649" stroke="#231f20" stroke-miterlimit="10" stroke-width="0.25px" fill="#303030" id="svg_13"/>
   <line class="cls-3" x1="0.63386" y1="52.72649" x2="14.63386" y2="53.28649" stroke="#231f20" stroke-miterlimit="10" stroke-width="0.25px" fill="#303030" id="svg_14"/>
   <line class="cls-3" x1="11.32386" y1="66.00649" x2="12.54386" y2="74.78649" stroke="#231f20" stroke-miterlimit="10" stroke-width="0.25px" fill="#303030" id="svg_15"/>
   <line class="cls-3" x1="43.17386" y1="68.37649" x2="43.38386" y2="77.03649" stroke="#231f20" stroke-miterlimit="10" stroke-width="0.25px" fill="#303030" id="svg_16"/>
   <line class="cls-3" x1="59.88386" y1="30.25649" x2="59.20386" y2="39.00649" stroke="#231f20" stroke-miterlimit="10" stroke-width="0.25px" fill="#303030" id="svg_17"/>
   <polygon class="cls-2" points="33.5738582611084,23.676491141319275 42.37386131286621,23.486490607261658 42.37386131286621,25.516491293907166 42.37386131286621,27.84649121761322 33.70385932922363,28.036491751670837 33.70385932922363,25.75649106502533 33.5738582611084,23.676491141319275 " stroke="#231f20" stroke-miterlimit="10" fill="#303030" stroke-width="0.5px" id="svg_18"/>
   <line class="cls-3" x1="33.70386" y1="25.75649" x2="42.37386" y2="25.62649" stroke="#231f20" stroke-miterlimit="10" stroke-width="0.25px" fill="#303030" id="svg_19"/>
   <polygon class="cls-2" points="56.12386131286621,43.61649167537689 58.25385856628418,43.61649167537689 60.42385673522949,43.80649030208588 60.29385948181152,52.696489691734314 58.27386283874512,52.696489691734314 55.98386192321777,52.55649030208588 56.12386131286621,43.61649167537689 " stroke="#231f20" stroke-miterlimit="10" fill="#303030" stroke-width="0.5px" id="svg_20"/>
   <line class="cls-3" x1="58.25386" y1="43.61649" x2="58.27386" y2="52.69649" stroke="#231f20" stroke-miterlimit="10" stroke-width="0.25px" fill="#303030" id="svg_21"/>
  </g>
 </g>
</svg>