<svg width="110" height="92" xmlns="http://www.w3.org/2000/svg" data-name="Layer 1">
 <title>Oil Field</title>
 <g>
  <title>Layer 1</title>
  <g id="Platforms">
   <rect stroke-width="0.25px" stroke-miterlimit="10" stroke="#231f20" fill="#a65926" height="2.21" width="14.38" y="45.76182" x="79.27" class="cls-1" data-name="Steel Pipes Beams" id="Steel_Pipes_Beams"/>
   <rect stroke-width="0.25px" stroke-miterlimit="10" stroke="#231f20" fill="#a65926" height="2.21" width="7.29" y="45.76182" x="99.04" class="cls-1" id="Tools"/>
   <rect stroke-width="0.25px" stroke-miterlimit="10" stroke="#231f20" fill="#a65926" height="1.19" width="9.88" y="57.41182" x="70.91" class="cls-1" data-name="Crude Oil" id="Crude_Oil"/>
  </g>
  <g id="Buildings">
   <circle id="svg_1" stroke-width="0.5px" fill="#303030" stroke-miterlimit="10" stroke="#231f20" r="3.67" cy="43.10182" cx="63.36" class="cls-2"/>
   <circle id="svg_2" stroke-width="0.5px" fill="#303030" stroke-miterlimit="10" stroke="#231f20" r="3.65" cy="42.89182" cx="72.55" class="cls-2"/>
   <polygon id="svg_3" stroke-width="0.5px" fill="#303030" stroke-miterlimit="10" stroke="#231f20" points="78.97000330686569,38.71181869506836 78.97000330686569,34.091819763183594 85.91000574827194,34.091819763183594 91.03000086545944,34.091819763183594 91.03000086545944,38.71181869506836 78.97000330686569,38.71181869506836 " class="cls-2"/>
   <line id="svg_4" stroke-width="0.5px" fill="#303030" stroke-miterlimit="10" stroke="#231f20" y2="34.09182" x2="86.68" y1="38.71182" x1="86.68" class="cls-2"/>
   <rect id="svg_5" stroke-width="0.5px" fill="#303030" stroke-miterlimit="10" stroke="#231f20" height="2.17" width="2.17" y="35.31182" x="87.81" class="cls-2"/>
   <line id="svg_6" fill="none" stroke-width="0.25px" stroke-miterlimit="10" stroke="#231f20" y2="34.23182" x2="91.07" y1="35.31182" x1="89.98" class="cls-3"/>
   <line id="svg_7" fill="none" stroke-width="0.25px" stroke-miterlimit="10" stroke="#231f20" y2="38.59182" x2="91.08" y1="37.48182" x1="89.98" class="cls-3"/>
   <line id="svg_8" fill="none" stroke-width="0.25px" stroke-miterlimit="10" stroke="#231f20" y2="38.66182" x2="86.63" y1="37.48182" x1="87.81" class="cls-3"/>
   <line id="svg_9" fill="none" stroke-width="0.25px" stroke-miterlimit="10" stroke="#231f20" y2="34.19182" x2="86.69" y1="35.31182" x1="87.81" class="cls-3"/>
   <polygon id="svg_10" stroke-width="0.5px" fill="#303030" stroke-miterlimit="10" stroke="#231f20" points="47.96999949216843,77.4618148803711 47.96999949216843,72.8418197631836 54.90999811887741,72.8418197631836 60.039999186992645,72.8418197631836 60.039999186992645,77.4618148803711 47.96999949216843,77.4618148803711 " class="cls-2"/>
   <line id="svg_11" stroke-width="0.5px" fill="#303030" stroke-miterlimit="10" stroke="#231f20" y2="72.84182" x2="55.69" y1="77.46182" x1="55.69" class="cls-2"/>
   <rect id="svg_12" stroke-width="0.5px" fill="#303030" stroke-miterlimit="10" stroke="#231f20" height="2.17" width="2.17" y="74.06182" x="56.82" class="cls-2"/>
   <line id="svg_13" fill="none" stroke-width="0.25px" stroke-miterlimit="10" stroke="#231f20" y2="72.98182" x2="60.07" y1="74.06182" x1="58.99" class="cls-3"/>
   <line id="svg_14" fill="none" stroke-width="0.25px" stroke-miterlimit="10" stroke="#231f20" y2="77.34182" x2="60.09" y1="76.23182" x1="58.99" class="cls-3"/>
   <line id="svg_15" fill="none" stroke-width="0.25px" stroke-miterlimit="10" stroke="#231f20" y2="77.41182" x2="55.64" y1="76.23182" x1="56.82" class="cls-3"/>
   <line id="svg_16" fill="none" stroke-width="0.25px" stroke-miterlimit="10" stroke="#231f20" y2="72.94182" x2="55.69" y1="74.06182" x1="56.82" class="cls-3"/>
   <polygon id="svg_17" stroke-width="0.5px" fill="#303030" stroke-miterlimit="10" stroke="#231f20" points="105.33999842405319,82.29181671142578 100.71000117063522,82.29181671142578 100.71000117063522,75.35181427001953 100.71000117063522,70.23181915283203 105.33999842405319,70.23181915283203 105.33999842405319,82.29181671142578 " class="cls-2"/>
   <line id="svg_18" stroke-width="0.5px" fill="#303030" stroke-miterlimit="10" stroke="#231f20" y2="74.58182" x2="100.71" y1="74.58182" x1="105.34" class="cls-2"/>
   <rect transform="rotate(-90 22.84 175.392)" id="svg_19" stroke-width="0.5px" fill="#303030" stroke-miterlimit="10" stroke="#231f20" height="2.17" width="2.17" y="254.49183" x="124.78" class="cls-2"/>
   <line id="svg_20" fill="none" stroke-width="0.25px" stroke-miterlimit="10" stroke="#231f20" y2="70.19182" x2="100.85" y1="71.28182" x1="101.94" class="cls-3"/>
   <line id="svg_21" fill="none" stroke-width="0.25px" stroke-miterlimit="10" stroke="#231f20" y2="70.18182" x2="105.21" y1="71.28182" x1="104.11" class="cls-3"/>
   <line id="svg_22" fill="none" stroke-width="0.25px" stroke-miterlimit="10" stroke="#231f20" y2="74.63182" x2="105.29" y1="73.45182" x1="104.11" class="cls-3"/>
   <line id="svg_23" fill="none" stroke-width="0.25px" stroke-miterlimit="10" stroke="#231f20" y2="74.57182" x2="100.82" y1="73.45182" x1="101.94" class="cls-3"/>
   <polygon id="svg_24" stroke-width="0.5px" fill="#303030" stroke-miterlimit="10" stroke="#231f20" points="88.00000208616257,9.211819648742676 84.73000544309616,12.481817245483398 79.82000178098679,7.581818103790283 76.19999903440475,3.9518191814422607 79.47000330686569,0.6818186640739441 88.00000208616257,9.211819648742676 " class="cls-2"/>
   <line id="svg_25" stroke-width="0.5px" fill="#303030" stroke-miterlimit="10" stroke="#231f20" y2="7.03182" x2="79.27" y1="3.76182" x1="82.54" class="cls-2"/>
   <rect transform="rotate(-135 127.21 68.1718)" id="svg_26" stroke-width="0.5px" fill="#303030" stroke-miterlimit="10" stroke="#231f20" height="2.17" width="2.17" y="78.74182" x="205.47" class="cls-2"/>
   <line id="svg_27" fill="none" stroke-width="0.25px" stroke-miterlimit="10" stroke="#231f20" y2="3.83182" x2="76.27" y1="3.83182" x1="77.81" class="cls-3"/>
   <line id="svg_28" fill="none" stroke-width="0.25px" stroke-miterlimit="10" stroke="#231f20" y2="0.74182" x2="79.34" y1="2.30182" x1="79.34" class="cls-3"/>
   <line id="svg_29" fill="none" stroke-width="0.25px" stroke-miterlimit="10" stroke="#231f20" y2="3.83182" x2="82.54" y1="3.83182" x1="80.88" class="cls-3"/>
   <line id="svg_30" fill="none" stroke-width="0.25px" stroke-miterlimit="10" stroke="#231f20" y2="6.95182" x2="79.34" y1="5.36182" x1="79.34" class="cls-3"/>
   <polygon id="svg_31" stroke-width="0.5px" fill="#303030" stroke-miterlimit="10" stroke="#231f20" points="0.7100000381469727,24.311819076538086 3.5999998450279236,20.691818237304688 9.020000636577606,25.021818161010742 13.029999911785126,28.211816787719727 10.140000522136688,31.831819534301758 0.7100000381469727,24.311819076538086 " class="cls-2"/>
   <line id="svg_32" stroke-width="0.5px" fill="#303030" stroke-miterlimit="10" stroke="#231f20" y2="25.50182" x2="9.63" y1="29.12182" x1="6.74" class="cls-2"/>
   <rect transform="rotate(38.58 24.93 -6.02818)" id="svg_33" stroke-width="0.5px" fill="#303030" stroke-miterlimit="10" stroke="#231f20" height="2.17" width="2.17" y="29.40182" x="33.76" class="cls-2"/>
   <line id="svg_34" fill="none" stroke-width="0.25px" stroke-miterlimit="10" stroke="#231f20" y2="28.35182" x2="12.97" y1="28.52182" x1="11.44" class="cls-3"/>
   <line id="svg_35" fill="none" stroke-width="0.25px" stroke-miterlimit="10" stroke="#231f20" y2="31.76182" x2="10.26" y1="30.21182" x1="10.09" class="cls-3"/>
   <line id="svg_36" fill="none" stroke-width="0.25px" stroke-miterlimit="10" stroke="#231f20" y2="29.05182" x2="6.73" y1="28.86182" x1="8.39" class="cls-3"/>
   <line id="svg_37" fill="none" stroke-width="0.25px" stroke-miterlimit="10" stroke="#231f20" y2="25.59182" x2="9.56" y1="27.17182" x1="9.74" class="cls-3"/>
   <polygon id="svg_38" stroke-width="0.5px" fill="#303030" stroke-miterlimit="10" stroke="#231f20" points="54.609998881816864,18.491817474365234 59.21999949216843,18.141817092895508 59.7499982714653,25.051816940307617 60.13999766111374,30.16181755065918 55.52999705076218,30.521818161010742 54.609998881816864,18.491817474365234 " class="cls-2"/>
   <line id="svg_39" stroke-width="0.5px" fill="#303030" stroke-miterlimit="10" stroke="#231f20" y2="25.83182" x2="59.81" y1="26.18182" x1="55.2" class="cls-2"/>
   <rect transform="rotate(85.63 89.2 -32.0382)" id="svg_40" stroke-width="0.5px" fill="#303030" stroke-miterlimit="10" stroke="#231f20" height="2.17" width="2.17" y="2.91182" x="145.79" class="cls-2"/>
   <line id="svg_41" fill="none" stroke-width="0.25px" stroke-miterlimit="10" stroke="#231f20" y2="30.21182" x2="60" y1="29.21182" x1="58.83" class="cls-3"/>
   <line id="svg_42" fill="none" stroke-width="0.25px" stroke-miterlimit="10" stroke="#231f20" y2="30.56182" x2="55.66" y1="29.37182" x1="56.67" class="cls-3"/>
   <line id="svg_43" fill="none" stroke-width="0.25px" stroke-miterlimit="10" stroke="#231f20" y2="26.13182" x2="55.24" y1="27.21182" x1="56.51" class="cls-3"/>
   <line id="svg_44" fill="none" stroke-width="0.25px" stroke-miterlimit="10" stroke="#231f20" y2="25.84182" x2="59.7" y1="27.05182" x1="58.67" class="cls-3"/>
   <polygon id="svg_45" stroke-width="0.5px" fill="#303030" stroke-miterlimit="10" stroke="#231f20" points="91.3700048327446,84.47181701660156 92.05000513792038,89.04181671142578 85.18000239133835,90.07181549072266 80.11000269651413,90.82181549072266 79.44000452756882,86.24181365966797 91.3700048327446,84.47181701660156 " class="cls-2"/>
   <line id="svg_46" stroke-width="0.5px" fill="#303030" stroke-miterlimit="10" stroke="#231f20" y2="90.18182" x2="84.42" y1="85.60182" x1="83.74" class="cls-2"/>
   <rect id="svg_47" stroke-width="0.5px" fill="#303030" stroke-miterlimit="10" stroke="#231f20" transform="matrix(-0.99 0.15 -0.15 -0.99 177 178.99)" height="2.17" width="2.17" y="102.66993" x="79.63031" class="cls-2"/>
   <line id="svg_48" fill="none" stroke-width="0.25px" stroke-miterlimit="10" stroke="#231f20" y2="90.68182" x2="80.06" y1="89.45182" x1="80.97" class="cls-3"/>
   <line id="svg_49" fill="none" stroke-width="0.25px" stroke-miterlimit="10" stroke="#231f20" y2="86.37182" x2="79.4" y1="87.30182" x1="80.66" class="cls-3"/>
   <line id="svg_50" fill="none" stroke-width="0.25px" stroke-miterlimit="10" stroke="#231f20" y2="85.65182" x2="83.79" y1="86.99182" x1="82.8" class="cls-3"/>
   <line id="svg_51" fill="none" stroke-width="0.25px" stroke-miterlimit="10" stroke="#231f20" y2="90.08182" x2="84.4" y1="89.13182" x1="83.12" class="cls-3"/>
   <polygon id="svg_52" stroke-width="0.5px" fill="#303030" stroke-miterlimit="10" stroke="#231f20" points="104.11000269651413,12.331817626953125 108.67000025510788,13.131819725036621 107.46000117063522,19.971818923950195 106.57000178098679,25.01181983947754 102.01000422239304,24.211816787719727 104.11000269651413,12.331817626953125 " class="cls-2"/>
   <line id="svg_53" stroke-width="0.5px" fill="#303030" stroke-miterlimit="10" stroke="#231f20" y2="20.73182" x2="107.32" y1="19.93182" x1="102.77" class="cls-2"/>
   <rect transform="rotate(100.03 152.75 -75.2682)" id="svg_54" stroke-width="0.5px" fill="#303030" stroke-miterlimit="10" stroke="#231f20" height="2.17" width="2.17" y="-46.02818" x="256.33" class="cls-2"/>
   <line id="svg_55" fill="none" stroke-width="0.25px" stroke-miterlimit="10" stroke="#231f20" y2="25.02182" x2="106.42" y1="23.76182" x1="105.54" class="cls-3"/>
   <line id="svg_56" fill="none" stroke-width="0.25px" stroke-miterlimit="10" stroke="#231f20" y2="24.28182" x2="102.13" y1="23.39182" x1="103.41" class="cls-3"/>
   <line id="svg_57" fill="none" stroke-width="0.25px" stroke-miterlimit="10" stroke="#231f20" y2="19.89182" x2="102.83" y1="21.25182" x1="103.78" class="cls-3"/>
   <line id="svg_58" fill="none" stroke-width="0.25px" stroke-miterlimit="10" stroke="#231f20" y2="20.72182" x2="107.22" y1="21.63182" x1="105.92" class="cls-3"/>
  </g>
 </g>
</svg>