<svg width="78" height="114.99999999999999" xmlns="http://www.w3.org/2000/svg" data-name="Layer 1">

 <title>Sawmill</title>
 <g>
  <title>Layer 1</title>
  <g id="Misc">
   <path id="svg_1" stroke-width="0.5px" stroke-miterlimit="10" stroke="#231f20" fill="#0069a4" d="m49.13889,106.21333c2.8,1.63 2.91,2.79 6.44,4.75c2.25,1.24 4,2.2 6.37,2.25a11.61,11.61 0 0 0 7.44,-2.88a15,15 0 0 0 4.69,-7.25c2.06,-6 0.29,-8.32 0.44,-18.37c0.1,-6.87 1,-9.38 0.25,-16.38c-0.46,-4.41 -1.13,-6.42 -2.57,-8.12c-2.54,-3 -6.28,-3.58 -9.87,-4.13c-5,-0.77 -8.78,-0.06 -13.94,0.94c-6,1.17 -9,1.75 -11.62,4s-3.57,4.59 -5.25,8.37a30.16,30.16 0 0 0 -3,10a26.13,26.13 0 0 0 3.06,15.13c1.46,2.63 3.8,6.86 8.5,9c3.67,1.66 5.16,0.41 9.06,2.69z" class="cls-1"/>
   <rect id="svg_2" stroke-width="0.25px" fill="#673714" stroke-miterlimit="10" stroke="#231f20" height="14.95" width="2.25" y="45.61333" x="43.69889" class="cls-2"/>
  </g>
  <g id="Platforms">
   <rect fill="#a65926" stroke-width="0.25px" stroke-miterlimit="10" stroke="#231f20" height="45.87" width="3.54" y="57.05333" x="73.44889" class="cls-3" id="Logs"/>
   <rect fill="#a65926" stroke-width="0.25px" stroke-miterlimit="10" stroke="#231f20" height="23.22" width="3.54" y="1.05333" x="1.04889" class="cls-3" id="Beams"/>
   <rect fill="#a65926" stroke-width="0.25px" stroke-miterlimit="10" stroke="#231f20" height="23.22" width="3.54" y="31.74333" x="1.04889" class="cls-3" id="Lumber"/>
  </g>
  <g id="Buildings">
   <polygon id="svg_3" fill="#303030" stroke-width="0.5px" stroke-miterlimit="10" stroke="#231f20" points="3.2288894653320312,23.081111431121826 31.078887939453125,23.081111431121826 31.078887939453125,27.05111074447632 31.078887939453125,31.64111089706421 3.2288894653320312,31.92111349105835 2.018888473510742,26.83111333847046 3.2288894653320312,23.081111431121826 " class="cls-4"/>
   <polygon id="svg_4" fill="#303030" stroke-width="0.5px" stroke-miterlimit="10" stroke="#231f20" points="31.078887939453125,13.951112270355225 31.078887939453125,46.33111333847046 44.71889114379883,46.17111349105835 58.548892974853516,46.111112117767334 58.548892974853516,13.951112270355225 44.71889114379883,12.951112270355225 31.078887939453125,13.951112270355225 " class="cls-4"/>
   <polygon id="svg_5" fill="#303030" stroke-width="0.5px" stroke-miterlimit="10" stroke="#231f20" points="32.858890533447266,12.951112270355225 32.858890533447266,18.05111265182495 32.858890533447266,25.271111965179443 38.518890380859375,25.271111965179443 38.518890380859375,37.361112117767334 44.918888092041016,37.361112117767334 50.978885650634766,37.361112117767334 50.978885650634766,25.16111135482788 56.69888687133789,25.16111135482788 56.69888687133789,18.021111965179443 56.69888687133789,12.951112270355225 32.858890533447266,12.951112270355225 " class="cls-4"/>
   <polygon id="svg_6" fill="#303030" stroke-width="0.5px" stroke-miterlimit="10" stroke="#231f20" points="75.47888565063477,17.701112270355225 76.69888687133789,22.521111965179443 75.47888565063477,29.14111089706421 58.668888092041016,29.14111089706421 58.668888092041016,22.491111278533936 58.668888092041016,17.701112270355225 75.47888565063477,17.701112270355225 " class="cls-4"/>
   <line id="svg_7" fill="#303030" stroke-width="0.25px" stroke-miterlimit="10" stroke="#231f20" y2="26.83111" x2="31.07889" y1="26.83111" x1="2.01889" class="cls-5"/>
   <line id="svg_8" fill="#303030" stroke-width="0.25px" stroke-miterlimit="10" stroke="#231f20" y2="22.49111" x2="58.66889" y1="22.52111" x1="76.69889" class="cls-5"/>
   <polyline id="svg_9" fill="none" stroke-width="0.25px" stroke-miterlimit="10" stroke="#231f20" points="44.71889114379883,46.17111349105835 44.71889114379883,37.361112117767334 44.71889114379883,18.201112270355225 33.168888092041016,18.201112270355225 56.57889175415039,18.201112270355225 " class="cls-6"/>
   <polyline id="svg_10" fill="none" stroke-width="0.25px" stroke-miterlimit="10" stroke="#231f20" points="38.518890380859375,25.271111965179443 44.71889114379883,18.201112270355225 51.19888687133789,25.16111135482788 " class="cls-6"/>
  </g>
 </g>
</svg>